<svg class="img-fluid" id="outputsvg" xmlns="http://www.w3.org/2000/svg" style="transform: none; transform-origin: 50% 50%; cursor: move; max-height: none;" width="3584" height="684" viewBox="0 0 35840 6840"><g id="l6NzZ8qv6uhKm3W7rNtGB0i" fill="rgb(255,255,255)" style="transform: none;"><g style="transform: none;"><path id="p4a16VbH7" d="M3853 6389 c-31 -32 -8 -52 72 -64 28 -4 73 -18 101 -31 28 -13 57 -24 65 -24 8 0 32 -10 54 -21 22 -12 60 -28 86 -35 26 -8 52 -20 58 -28 7 -8 23 -17 38 -21 14 -3 42 -17 62 -31 19 -13 41 -24 47 -24 6 0 28 -13 49 -30 21 -16 43 -30 50 -30 7 0 18 -7 26 -16 7 -8 29 -24 48 -35 20 -11 54 -33 76 -50 22 -16 52 -38 67 -47 65 -43 332 -299 423 -407 28 -32 59 -68 71 -81 12 -12 42 -53 68 -91 26 -37 62 -88 81 -113 19 -25 41 -58 50 -75 17 -34 47 -84 81 -136 13 -19 24 -42 24 -50 0 -8 11 -30 24 -49 13 -19 27 -46 31 -60 4 -14 16 -36 25 -50 10 -14 22 -42 28 -62 6 -21 20 -51 31 -67 12 -16 21 -40 21 -53 0 -13 11 -43 24 -68 13 -25 29 -70 36 -100 7 -30 18 -66 26 -80 7 -14 17 -55 24 -90 6 -36 17 -81 25 -101 8 -20 21 -88 30 -150 8 -63 23 -150 32 -194 25 -114 25 -558 1 -625 -9 -25 -22 -90 -28 -145 -11 -87 -32 -176 -72 -290 -5 -16 -19 -57 -30 -90 -21 -64 -32 -91 -47 -115 -5 -8 -27 -51 -49 -95 -50 -103 -71 -139 -104 -182 -16 -20 -28 -40 -28 -46 0 -11 -34 -55 -105 -135 -28 -31 -65 -74 -82 -94 -18 -21 -65 -65 -105 -99 -40 -34 -77 -67 -83 -74 -9 -10 -59 -45 -114 -80 -9 -6 -29 -19 -44 -29 -38 -26 -71 -44 -169 -92 -141 -70 -194 -92 -234 -100 -21 -4 -59 -18 -83 -31 -24 -12 -58 -23 -76 -23 -18 0 -61 -9 -96 -21 -35 -11 -118 -27 -184 -34 -66 -8 -160 -22 -210 -30 -76 -14 -178 -16 -673 -13 -564 3 -584 4 -598 22 -12 17 -14 295 -14 1922 0 1756 -1 1903 -17 1915 -13 11 -105 15 -485 17 -317 2 -475 -1 -488 -8 -20 -11 -20 -26 -20 -2395 0 -2056 2 -2386 14 -2398 8 -8 36 -17 63 -20 85 -10 2479 0 2633 11 81 6 165 18 190 27 25 9 81 20 125 26 44 5 100 18 125 28 25 10 67 22 93 26 26 3 71 17 100 31 29 13 58 24 66 24 8 0 37 11 65 24 29 14 65 28 81 32 17 4 37 13 46 20 8 8 31 19 50 25 19 7 45 20 59 29 14 10 41 25 60 34 32 16 60 32 159 91 18 11 48 31 67 45 18 14 49 36 69 50 57 39 234 190 300 255 63 62 206 228 240 279 11 16 29 41 40 56 44 62 105 153 105 158 0 3 11 19 24 37 13 17 31 47 40 66 9 19 24 48 33 64 8 17 21 41 28 55 6 14 16 34 23 45 24 45 72 152 72 164 0 6 11 33 25 59 14 26 25 59 25 73 0 14 11 46 24 71 13 25 27 65 31 89 4 24 16 67 26 94 10 28 23 79 28 115 6 36 20 101 31 144 11 44 20 100 20 125 0 25 8 96 17 156 22 146 28 515 9 565 -8 19 -14 55 -14 80 -2 99 -22 269 -40 340 -11 41 -22 100 -26 132 -3 31 -14 76 -25 100 -10 24 -22 64 -26 88 -4 25 -15 61 -25 80 -10 19 -21 51 -25 70 -4 19 -18 56 -31 82 -13 26 -24 55 -24 64 0 9 -11 37 -24 63 -14 25 -41 82 -62 126 -20 44 -45 89 -54 100 -10 11 -21 31 -25 45 -4 14 -15 34 -25 45 -10 11 -24 31 -31 46 -24 44 -53 90 -79 125 -14 18 -36 50 -50 70 -129 188 -470 520 -634 617 -17 11 -40 27 -51 36 -34 29 -100 71 -112 71 -6 0 -24 11 -40 24 -15 13 -39 27 -53 31 -14 4 -41 18 -60 31 -19 13 -41 24 -50 24 -8 0 -35 11 -59 25 -23 14 -49 25 -56 25 -6 0 -33 11 -58 24 -25 14 -63 28 -84 32 -21 4 -60 18 -88 30 -27 13 -63 24 -80 24 -16 0 -50 10 -75 21 -25 11 -90 26 -146 33 -56 8 -110 18 -120 24 -37 20 -180 33 -419 39 -192 4 -243 3 -252 -8z"></path><path id="p3r985RV1" d="M488 6378 c-10 -7 -22 -26 -28 -41 -7 -19 -10 -942 -10 -2946 0 -2908 0 -2918 20 -2936 19 -17 51 -18 490 -19 411 -1 471 1 485 15 14 13 15 263 15 2468 0 1683 3 2458 10 2472 10 19 28 19 781 19 761 0 852 -3 964 -35 28 -7 72 -17 100 -20 27 -4 66 -15 85 -25 20 -10 54 -22 75 -26 22 -3 60 -17 85 -29 25 -12 58 -25 74 -29 17 -4 41 -15 55 -25 14 -10 37 -22 51 -26 14 -4 34 -15 45 -25 11 -10 36 -25 55 -34 19 -9 55 -31 80 -51 25 -19 62 -44 82 -55 20 -11 95 -77 165 -148 124 -124 146 -148 198 -222 13 -19 38 -53 55 -75 16 -22 36 -53 44 -70 8 -16 26 -45 40 -64 14 -19 26 -41 26 -49 0 -8 9 -27 21 -43 11 -16 25 -46 31 -67 5 -20 17 -44 25 -53 8 -10 20 -40 28 -69 7 -28 20 -62 29 -75 9 -13 18 -43 22 -67 3 -24 16 -77 29 -118 59 -195 62 -794 5 -975 -11 -33 -25 -85 -31 -115 -6 -30 -19 -71 -29 -90 -9 -19 -20 -52 -24 -74 -7 -34 -23 -71 -72 -166 -7 -14 -25 -47 -39 -75 -25 -50 -54 -99 -87 -149 -10 -14 -26 -38 -35 -52 -10 -15 -25 -37 -33 -49 -21 -32 -117 -148 -170 -208 -63 -70 -347 -307 -368 -307 -6 0 -23 -11 -39 -24 -15 -13 -45 -31 -65 -39 -22 -9 -43 -28 -53 -47 -23 -44 -9 -57 42 -42 21 6 74 14 118 17 178 12 272 24 306 39 20 8 67 20 104 26 37 6 84 19 104 29 20 10 51 21 70 25 19 3 57 17 85 30 165 77 252 123 322 170 16 11 47 31 69 45 93 60 263 217 360 332 32 38 83 110 117 164 17 28 41 66 54 85 12 19 25 46 29 60 4 14 16 36 26 49 11 13 19 31 19 40 0 9 14 43 30 76 16 33 30 70 30 82 0 13 11 51 24 85 13 35 29 88 35 118 6 30 18 80 26 110 27 98 40 414 27 639 -7 109 -19 223 -28 252 -8 30 -20 88 -26 129 -6 41 -21 107 -33 145 -13 39 -26 90 -30 115 -4 25 -16 62 -26 82 -11 21 -19 45 -19 55 0 10 -14 45 -30 78 -16 33 -30 66 -30 73 0 7 -11 32 -24 55 -13 23 -27 56 -31 74 -3 17 -13 37 -20 43 -8 6 -19 28 -26 48 -7 20 -23 53 -35 72 -13 19 -24 38 -24 43 0 5 -11 23 -25 41 -14 18 -25 37 -25 43 0 6 -10 23 -22 39 -13 15 -32 42 -43 60 -93 148 -180 260 -317 408 -26 28 -48 54 -48 58 0 3 -41 42 -92 85 -50 43 -112 98 -137 121 -39 38 -111 90 -172 127 -9 6 -43 28 -75 50 -71 47 -103 66 -169 99 -27 14 -61 32 -75 40 -34 20 -166 76 -180 76 -6 0 -32 11 -58 25 -26 14 -58 25 -72 25 -14 0 -44 9 -68 20 -24 11 -82 26 -130 35 -48 8 -112 22 -142 32 -50 15 -174 17 -1495 20 -1158 3 -1444 1 -1457 -9z"></path><path id="pJ6klMjym" d="M26203 6165 c-36 -15 -38 -20 -77 -143 -37 -118 -35 -145 11 -177 41 -27 70 -30 123 -11 51 19 60 44 60 181 0 93 -4 126 -16 143 -18 26 -53 28 -101 7z"></path><path id="pFAoi6Bzy" d="M11149 5991 l-24 -19 0 -369 c0 -453 1 -458 98 -526 35 -24 78 -49 97 -55 23 -8 148 -12 404 -12 445 0 420 -6 414 106 -3 60 -8 78 -26 96 -22 23 -26 23 -360 28 -305 5 -340 7 -372 24 -45 24 -43 21 -31 45 18 33 75 41 302 41 l216 0 45 30 c27 18 51 43 56 59 13 38 0 98 -28 125 -20 20 -32 21 -268 24 -254 2 -315 10 -333 43 -5 10 -9 89 -9 176 0 87 -4 163 -8 169 -25 38 -134 47 -173 15z"></path><path id="p9IC1xtDo" d="M12775 5997 c-133 -39 -287 -191 -321 -318 -16 -61 -20 -501 -5 -579 11 -55 40 -80 93 -80 93 0 100 22 107 320 l6 235 42 76 43 75 89 41 c80 37 95 40 130 32 88 -20 147 -49 192 -96 74 -77 83 -117 84 -374 1 -237 8 -269 56 -294 39 -21 133 -20 150 2 11 13 14 78 14 327 0 304 -1 312 -22 346 -12 19 -32 53 -44 75 -25 45 -123 145 -143 145 -7 0 -30 13 -50 29 -20 16 -59 34 -87 40 -65 14 -283 13 -334 -2z"></path><path id="pAJeu6chc" d="M14193 5995 c-17 -7 -36 -22 -42 -34 -7 -13 -11 -126 -11 -326 0 -403 8 -387 -191 -395 l-129 -6 -40 -39 c-49 -48 -55 -97 -16 -142 l24 -28 460 -3 c284 -2 469 1 485 7 33 13 53 79 41 130 -16 62 -42 72 -214 80 -143 6 -154 8 -171 30 -18 22 -19 45 -19 353 0 326 -3 360 -34 380 -18 13 -109 8 -143 -7z"></path><path id="paQ2qpq0g" d="M15393 6000 c-50 -12 -167 -92 -223 -153 -118 -129 -159 -357 -122 -679 13 -119 46 -152 146 -146 78 5 79 10 86 336 l5 274 26 21 c14 12 35 36 47 53 14 21 42 39 79 54 32 13 67 29 78 37 30 20 71 16 148 -18 72 -31 120 -68 160 -124 21 -29 22 -43 27 -300 6 -315 7 -319 87 -330 30 -4 63 -1 88 7 64 21 70 47 69 340 l-1 247 -44 93 c-34 73 -57 106 -106 153 -73 70 -145 119 -199 134 -44 12 -302 13 -351 1z"></path><path id="pYFUuBYxT" d="M16414 6004 c-12 -3 -31 -15 -43 -28 -22 -23 -22 -26 -22 -454 -1 -478 -1 -478 61 -499 44 -15 545 -17 645 -3 99 15 168 63 212 151 29 57 33 71 29 129 -5 86 -54 193 -97 210 -38 16 -75 61 -84 101 -5 24 -2 36 14 53 11 12 30 49 41 81 11 33 31 71 44 85 29 30 62 120 53 143 -10 26 -56 39 -124 35 -87 -5 -114 -27 -158 -128 -8 -19 -26 -50 -40 -69 -14 -19 -30 -51 -35 -72 -7 -24 -31 -60 -64 -94 l-53 -55 -85 0 c-75 0 -87 2 -106 23 -21 22 -22 33 -22 188 0 117 -4 170 -12 182 -13 17 -111 30 -154 21z m597 -683 c25 -30 24 -32 -17 -58 -33 -21 -47 -23 -193 -23 -145 0 -161 2 -185 21 -31 25 -33 42 -5 70 19 19 30 20 201 17 175 -3 180 -4 199 -27z"></path><path id="pRhRkM9my" d="M17736 6000 c-46 -14 -142 -115 -156 -164 -7 -28 -10 -136 -8 -338 l3 -296 31 -44 c39 -54 128 -124 174 -138 21 -6 178 -10 393 -10 398 0 407 1 425 62 22 72 22 74 -25 120 l-44 43 -332 3 c-323 3 -332 3 -354 24 -27 25 -28 37 -9 64 13 18 32 19 269 24 233 5 257 7 276 24 48 44 51 147 6 192 l-24 24 -254 0 c-242 0 -256 1 -281 21 -39 31 -36 83 8 141 49 64 73 68 388 68 151 0 279 5 300 10 42 12 52 26 62 88 5 37 3 46 -18 67 l-25 25 -388 -1 c-213 0 -401 -5 -417 -9z"></path><path id="pAZT1Puuh" d="M19900 5990 c-19 -19 -20 -33 -20 -474 0 -432 1 -455 19 -477 l19 -24 299 -3 c381 -4 411 1 497 74 45 39 66 64 74 92 16 54 15 195 -2 235 -7 18 -44 60 -82 94 -68 61 -69 63 -69 112 0 39 6 58 31 94 17 24 39 66 48 93 9 27 30 69 46 93 35 52 37 64 10 91 -15 15 -33 20 -79 20 -106 0 -117 -5 -170 -84 -27 -40 -54 -90 -61 -112 -11 -34 -53 -107 -105 -181 -29 -41 -157 -58 -215 -28 -34 17 -32 8 -36 203 -3 177 -19 202 -135 202 -36 0 -54 -5 -69 -20z m620 -660 c25 -25 25 -41 0 -68 -20 -21 -30 -22 -173 -23 -183 -2 -177 -2 -204 24 -29 26 -29 32 2 62 24 25 27 25 190 25 152 0 167 -2 185 -20z"></path><path id="ps2TRT8K" d="M21263 6000 c-18 -4 -48 -21 -68 -39 -20 -17 -40 -31 -45 -31 -5 0 -17 -15 -27 -32 -16 -30 -18 -66 -18 -373 0 -261 3 -347 13 -372 17 -39 102 -112 151 -129 27 -10 131 -13 416 -14 434 0 419 -3 430 78 8 58 -12 114 -47 134 -17 10 -99 14 -338 16 -304 3 -316 4 -347 25 -37 24 -39 34 -19 63 13 18 31 19 248 24 262 6 283 11 320 81 16 32 17 41 6 74 -7 21 -26 48 -41 59 -27 20 -44 21 -285 26 -182 4 -264 9 -279 18 -19 11 -23 21 -23 65 0 55 4 63 58 112 l33 30 329 5 330 5 24 25 c34 36 42 100 15 134 l-20 26 -392 -1 c-216 -1 -406 -4 -424 -9z"></path><path id="p4yepdhQs" d="M22382 5994 c-32 -22 -28 -61 13 -124 19 -30 35 -60 35 -66 0 -7 16 -35 36 -64 20 -29 43 -73 52 -99 8 -25 25 -59 38 -76 12 -16 32 -56 44 -87 11 -31 29 -67 40 -80 10 -14 30 -49 43 -79 13 -30 31 -60 40 -67 9 -8 28 -45 42 -83 28 -73 51 -94 111 -101 26 -3 32 3 59 54 17 31 40 67 51 80 12 13 29 45 38 72 8 27 27 63 40 81 14 17 32 55 42 84 9 29 27 65 40 81 13 15 33 49 44 76 12 27 30 58 40 69 10 11 29 47 41 80 12 33 32 74 44 90 24 32 45 87 45 116 0 36 -36 59 -91 59 -107 0 -152 -29 -179 -115 -7 -22 -20 -49 -30 -60 -23 -26 -50 -80 -50 -99 0 -8 -15 -33 -34 -55 -19 -23 -42 -63 -51 -91 -9 -27 -21 -52 -25 -55 -11 -7 -66 19 -93 43 -9 8 -24 37 -31 63 -8 26 -30 71 -50 99 -20 29 -36 58 -36 65 0 6 -14 31 -31 54 -17 24 -39 62 -49 86 -13 31 -27 45 -51 54 -48 16 -150 14 -177 -5z"></path><path id="p1EOjXMVQh" d="M23660 6003 c-14 -3 -33 -12 -42 -20 -17 -15 -18 -49 -18 -442 0 -252 4 -441 10 -462 17 -60 34 -63 308 -67 139 -2 273 1 311 7 99 15 221 83 287 158 62 71 61 71 91 152 14 36 31 82 38 101 18 45 18 135 1 180 -82 213 -120 268 -225 327 -31 17 -69 40 -86 50 -27 16 -59 18 -340 19 -170 1 -321 0 -335 -3z m565 -223 c77 -36 171 -124 179 -169 26 -140 15 -194 -58 -274 -77 -83 -122 -97 -309 -97 -139 0 -145 1 -171 25 l-26 24 0 206 c0 277 1 279 140 310 91 20 161 13 245 -25z"></path><path id="p10dUo1P0x" d="M25243 5995 c-17 -7 -36 -22 -42 -34 -7 -11 -11 -81 -11 -169 0 -105 -4 -163 -15 -198 -9 -27 -21 -65 -27 -84 -10 -33 -33 -64 -112 -155 -20 -22 -46 -54 -58 -72 -13 -17 -41 -56 -64 -85 -71 -92 -89 -143 -61 -166 18 -15 117 -26 161 -18 39 8 97 61 205 191 56 68 67 76 90 70 52 -12 78 -26 94 -54 28 -47 175 -190 204 -198 47 -13 158 -9 176 6 21 17 22 45 1 62 -8 7 -25 31 -36 53 -11 23 -32 55 -47 72 -14 18 -51 64 -81 105 -30 40 -69 87 -86 103 -17 17 -50 70 -73 117 l-42 86 -6 173 c-5 150 -9 176 -25 192 -22 22 -98 24 -145 3z"></path><path id="ppBAEv9Re" d="M27060 5999 c-61 -25 -60 -19 -61 -298 0 -336 -21 -460 -77 -462 -9 0 -58 0 -107 1 -50 1 -104 -4 -120 -10 -46 -17 -95 -70 -95 -101 0 -45 27 -95 58 -108 20 -9 150 -11 479 -9 520 3 493 -2 493 93 0 55 -21 94 -63 116 -11 7 -84 15 -161 19 -128 7 -142 10 -158 30 -17 20 -18 49 -18 352 0 326 -3 360 -34 380 -16 11 -107 9 -136 -3z"></path><path id="p1Co26tjUH" d="M28130 6003 c-72 -14 -224 -142 -288 -243 -37 -58 -72 -200 -65 -261 17 -130 34 -193 63 -226 17 -18 30 -38 30 -44 0 -27 105 -113 197 -161 l98 -52 130 0 130 -1 90 45 c101 49 169 110 230 204 62 94 79 224 52 382 -19 109 -112 238 -207 290 -25 14 -61 35 -80 47 -32 20 -49 22 -195 24 -88 0 -171 -1 -185 -4z m284 -237 c84 -40 92 -49 140 -138 47 -88 49 -141 5 -224 -49 -91 -81 -120 -163 -145 -74 -22 -130 -22 -209 1 -58 17 -138 103 -159 171 -28 89 -28 99 -2 167 29 78 63 126 107 149 117 64 179 68 281 19z"></path><path id="prWC77qKe" d="M29114 6000 c-17 -6 -39 -19 -50 -31 -18 -20 -19 -40 -19 -358 0 -322 10 -481 34 -544 20 -52 49 -57 303 -57 128 0 261 5 295 10 135 22 313 151 352 255 11 27 31 75 45 105 34 72 36 182 5 250 -12 25 -31 74 -44 111 -26 76 -93 151 -171 193 -27 15 -65 37 -84 49 -34 21 -44 22 -335 24 -165 1 -314 -2 -331 -7z m545 -221 c65 -26 91 -42 135 -89 49 -51 55 -62 62 -116 4 -33 3 -85 -3 -120 -9 -53 -17 -67 -65 -117 -48 -51 -63 -60 -127 -78 -60 -17 -95 -20 -206 -17 -113 2 -137 6 -152 21 -16 16 -18 42 -21 234 -5 319 0 326 194 318 85 -3 115 -9 183 -36z"></path><path id="pXReDYOd5" d="M30269 6003 c-15 -2 -35 -13 -45 -24 -18 -20 -18 -22 4 -62 12 -23 29 -62 37 -87 9 -25 27 -61 40 -80 13 -19 33 -58 44 -86 11 -28 31 -67 45 -88 13 -20 32 -59 41 -86 9 -28 25 -56 36 -64 11 -7 31 -42 44 -76 14 -35 33 -73 44 -84 10 -12 29 -45 41 -74 15 -33 41 -69 73 -97 57 -52 64 -50 102 24 12 25 32 54 44 65 11 10 28 40 36 67 9 28 27 62 40 77 13 16 31 48 41 73 9 24 27 58 40 76 13 17 33 55 44 85 11 30 31 69 45 88 14 19 30 51 35 70 5 20 23 57 40 82 17 25 39 71 50 102 l19 57 -24 25 c-20 20 -34 24 -82 24 -32 -1 -68 -6 -79 -13 -28 -16 -91 -91 -100 -120 -3 -12 -17 -37 -31 -55 -14 -18 -36 -61 -49 -94 -13 -34 -30 -68 -38 -77 -8 -9 -25 -41 -39 -72 -14 -31 -29 -59 -35 -63 -16 -10 -109 105 -131 163 -11 30 -29 63 -39 75 -11 12 -27 45 -36 73 -10 30 -38 76 -64 108 -58 69 -97 83 -193 68z"></path><path id="p10yXQwADz" d="M31679 5991 c-23 -18 -24 -26 -30 -183 -4 -140 -8 -169 -27 -204 -11 -23 -26 -63 -33 -89 -9 -35 -30 -68 -85 -131 -41 -46 -80 -97 -88 -112 -8 -15 -24 -36 -36 -47 -27 -24 -100 -148 -100 -169 0 -25 33 -36 123 -38 l85 -3 56 60 c100 108 115 126 132 155 20 33 52 50 94 50 24 0 37 -9 66 -50 20 -27 40 -50 45 -50 5 0 19 -15 30 -34 23 -39 120 -115 164 -127 46 -14 86 -11 125 9 28 13 34 22 32 41 -5 30 -61 120 -111 178 -20 23 -54 65 -76 93 -22 29 -54 69 -71 89 -17 20 -48 70 -69 111 l-39 75 -6 174 -5 173 -28 24 c-36 31 -113 34 -148 5z"></path><path id="pADPUAI6k" d="M18959 5641 c-55 -35 -74 -74 -65 -136 12 -75 11 -75 326 -75 151 0 284 3 295 6 22 6 85 94 85 119 0 22 -46 92 -69 105 -12 6 -116 10 -273 10 l-254 0 -45 -29z"></path><path id="pUTIlkF59" d="M8111 3763 c-23 -11 -39 -30 -52 -61 -18 -42 -19 -85 -19 -1032 l0 -989 26 -20 c50 -39 88 -42 587 -42 606 0 781 12 862 61 17 10 55 25 86 34 31 8 67 24 80 34 13 11 44 29 69 42 54 27 98 62 188 151 96 95 117 120 137 159 10 19 28 50 42 68 13 17 32 56 42 85 11 28 31 80 45 113 33 79 46 168 46 329 0 157 -21 293 -50 333 -11 15 -28 54 -36 87 -9 32 -28 74 -42 93 -15 19 -36 50 -47 67 -60 97 -215 265 -245 265 -5 0 -24 13 -42 28 -58 50 -206 123 -281 138 -38 8 -82 21 -98 29 -15 8 -43 15 -61 15 -18 1 -60 7 -93 15 -48 12 -161 15 -585 15 -468 0 -529 -2 -559 -17z m1259 -463 c119 -42 134 -52 263 -179 67 -65 86 -92 130 -181 l51 -105 1 -140 c0 -136 -1 -143 -28 -195 -16 -30 -37 -78 -48 -105 -26 -69 -172 -222 -249 -260 -30 -15 -67 -36 -81 -46 -45 -31 -142 -39 -515 -39 l-361 0 -27 26 -26 27 0 573 c0 586 1 602 38 647 14 16 45 17 378 17 l363 0 111 -40z"></path><path id="p1Ack3o9V0" d="M13128 3768 c-20 -5 -45 -19 -55 -30 -17 -19 -18 -67 -21 -1036 -3 -1126 -7 -1048 65 -1070 52 -15 987 -17 1168 -2 170 14 193 18 240 45 22 12 65 30 96 39 31 8 73 30 95 47 21 17 53 38 69 46 92 47 277 239 328 339 14 28 33 56 41 63 9 8 26 46 38 85 12 39 32 94 45 121 21 47 23 62 23 247 0 178 -2 203 -22 255 -11 32 -32 96 -45 143 -12 47 -32 97 -42 111 -11 15 -27 43 -35 64 -9 20 -29 53 -46 71 -16 19 -36 47 -45 63 -13 25 -109 115 -219 204 -19 15 -58 37 -88 49 -29 12 -69 32 -88 45 -20 13 -76 32 -125 43 -50 11 -130 30 -180 42 -86 21 -115 22 -625 24 -335 2 -549 -1 -572 -8z m1251 -468 c70 -25 127 -52 148 -70 19 -17 37 -30 42 -30 12 0 121 -108 121 -120 0 -5 15 -27 33 -47 20 -23 39 -58 46 -87 7 -27 23 -75 37 -107 33 -80 35 -236 3 -288 -11 -18 -27 -61 -36 -95 -26 -104 -171 -269 -288 -328 -27 -14 -70 -36 -95 -49 -45 -24 -46 -24 -437 -27 l-392 -3 -38 35 -38 34 -3 567 -2 566 47 44 48 44 345 1 345 0 114 -40z"></path><path id="pOeeyvosF" d="M16785 3766 c-44 -7 -94 -20 -110 -29 -17 -8 -55 -20 -85 -25 -68 -13 -104 -26 -142 -54 -16 -11 -50 -28 -75 -38 -25 -9 -66 -32 -91 -51 -71 -53 -259 -247 -278 -288 -9 -20 -30 -51 -45 -68 -16 -18 -33 -52 -39 -75 -6 -24 -25 -72 -43 -108 l-32 -65 0 -276 0 -275 31 -60 c17 -32 39 -82 48 -110 9 -28 28 -66 42 -85 14 -19 31 -47 38 -64 18 -42 240 -261 290 -287 22 -11 56 -33 76 -49 19 -15 60 -35 90 -44 30 -9 76 -27 101 -40 65 -34 159 -46 364 -47 196 0 302 13 352 42 18 10 63 28 100 39 37 11 90 36 117 56 27 19 54 35 59 35 5 0 27 15 50 33 22 17 57 42 76 54 19 11 47 37 61 56 14 19 57 77 96 128 39 52 76 110 83 129 6 19 23 52 37 72 19 27 30 62 40 134 8 53 22 113 30 133 25 59 19 216 -16 384 -17 78 -30 145 -30 149 0 3 -11 19 -24 35 -14 16 -33 52 -43 79 -31 81 -148 231 -236 302 -32 26 -75 61 -95 78 -53 44 -238 132 -304 144 -31 6 -90 22 -130 36 -89 32 -241 40 -363 20z m330 -453 c28 -12 68 -26 90 -32 86 -23 244 -160 309 -271 36 -60 49 -96 65 -179 26 -127 26 -141 1 -271 -15 -78 -27 -115 -49 -145 -15 -22 -36 -57 -46 -78 -24 -51 -150 -176 -201 -198 -22 -10 -51 -27 -65 -37 -44 -34 -93 -44 -234 -49 -172 -7 -260 6 -323 45 -26 16 -63 35 -82 42 -31 12 -69 40 -123 90 -73 68 -137 179 -184 320 -30 92 -4 340 42 390 8 9 21 35 29 59 17 47 126 175 168 197 15 8 42 27 60 43 18 16 64 38 103 50 39 12 81 28 95 36 19 12 55 14 160 12 112 -2 144 -6 185 -24z"></path><path id="pVLwQHHDb" d="M21868 3770 c-48 -9 -72 -31 -86 -79 -17 -55 -15 -1918 1 -1980 17 -64 37 -72 81 -33 20 18 42 32 49 32 7 0 37 20 67 45 30 25 58 45 62 45 4 0 28 18 53 40 25 22 50 40 54 40 5 0 27 17 49 38 22 20 54 46 71 57 66 44 157 109 166 121 6 6 29 24 53 38 23 14 42 30 42 35 0 4 21 22 48 39 26 18 81 56 122 86 41 30 91 66 110 79 19 13 42 32 49 41 8 10 27 24 42 32 31 16 149 100 194 140 17 14 50 40 74 57 23 18 68 51 100 74 31 23 79 57 106 76 28 18 56 41 64 50 16 20 59 22 84 3 16 -12 17 -52 17 -588 l0 -575 23 -20 c43 -40 65 -44 199 -44 101 1 136 5 157 17 59 35 56 -27 59 1045 2 957 2 986 -17 1003 -10 9 -34 19 -52 22 -29 5 -44 -1 -104 -44 -38 -28 -85 -63 -104 -79 -19 -15 -48 -36 -65 -47 -17 -10 -42 -29 -56 -42 -26 -25 -55 -46 -150 -111 -30 -21 -72 -51 -92 -68 -20 -16 -58 -46 -83 -65 -25 -19 -60 -47 -78 -61 -17 -15 -53 -40 -78 -56 -46 -29 -79 -54 -162 -123 -23 -20 -60 -48 -82 -63 -22 -15 -67 -47 -100 -72 -33 -25 -81 -59 -107 -76 -27 -18 -48 -36 -48 -40 0 -5 -20 -20 -44 -34 -24 -14 -50 -33 -57 -41 -7 -9 -36 -31 -64 -50 -27 -19 -77 -54 -110 -79 -90 -66 -91 -67 -106 -48 -11 13 -15 132 -19 617 -3 331 -9 609 -14 619 -5 10 -20 23 -33 28 -28 10 -230 10 -285 -1z"></path><path id="px4BMvtEA" d="M25590 3762 c-72 -35 -69 0 -70 -828 0 -408 -3 -761 -6 -786 -3 -24 -14 -55 -25 -69 l-18 -24 -393 -5 c-422 -5 -421 -5 -450 -59 -9 -16 -13 -63 -13 -140 0 -96 3 -123 20 -155 42 -83 -51 -76 1045 -76 536 0 1001 0 1033 0 51 0 62 4 88 29 28 29 29 32 29 131 0 111 -22 231 -47 252 -12 10 -102 14 -398 18 -359 5 -384 6 -404 24 l-21 19 0 781 0 780 -32 53 c-40 65 -60 73 -197 73 -81 0 -114 -4 -141 -18z"></path><path id="p8EcMR5Pt" d="M28163 3770 c-34 -5 -75 -16 -92 -24 -16 -9 -67 -25 -113 -35 -88 -21 -253 -98 -307 -144 -18 -15 -36 -27 -41 -27 -5 0 -29 -20 -53 -44 -25 -24 -51 -48 -59 -52 -31 -20 -154 -198 -188 -274 -12 -25 -34 -72 -51 -106 -54 -109 -72 -347 -44 -574 13 -100 21 -134 44 -174 16 -28 36 -74 45 -102 9 -29 26 -60 37 -70 12 -11 30 -36 40 -56 11 -21 28 -42 39 -48 11 -6 27 -24 36 -41 16 -32 101 -119 116 -119 5 0 27 -17 51 -39 23 -21 58 -46 77 -56 19 -10 46 -26 59 -37 13 -10 49 -26 80 -34 31 -9 77 -27 102 -40 69 -35 164 -47 364 -46 204 0 284 10 358 46 29 14 78 33 111 42 32 10 71 27 85 39 14 12 41 30 59 39 88 45 232 185 296 290 11 17 26 35 33 39 7 4 34 54 62 110 39 83 52 122 65 207 9 58 24 137 33 176 14 65 14 77 0 145 -9 41 -21 110 -27 154 -14 100 -36 179 -54 194 -7 6 -23 38 -35 72 -13 33 -35 74 -50 92 -16 18 -35 46 -44 62 -14 27 -72 90 -147 159 -14 13 -38 32 -55 42 -16 10 -39 26 -50 35 -40 35 -233 127 -291 139 -32 6 -95 23 -138 36 -89 28 -249 39 -353 24z m332 -457 c28 -12 69 -27 93 -33 24 -6 60 -26 80 -44 20 -18 48 -39 62 -47 38 -21 114 -107 140 -159 13 -25 33 -59 46 -75 59 -78 58 -447 -2 -528 -13 -18 -32 -50 -42 -72 -27 -57 -174 -201 -220 -216 -20 -6 -58 -25 -84 -41 -62 -39 -149 -51 -325 -46 l-142 4 -94 49 c-88 45 -152 96 -239 191 -14 16 -36 54 -48 84 -12 30 -27 62 -35 70 -41 48 -62 189 -47 321 24 215 206 448 402 515 36 12 81 29 100 38 55 25 288 18 355 -11z"></path><path id="pYiQiwjwC" d="M33221 3772 c-44 -9 -68 -43 -81 -112 -6 -34 -9 -411 -7 -990 2 -879 3 -937 20 -968 25 -45 41 -49 85 -18 21 14 43 26 49 26 6 0 26 14 44 31 19 17 56 47 84 66 107 72 150 105 158 119 4 8 22 21 40 30 18 9 44 27 58 40 25 24 47 40 165 118 33 22 62 45 67 52 4 7 28 26 55 43 26 17 76 54 112 81 36 28 84 63 106 78 41 27 59 42 156 122 26 21 65 49 88 61 22 12 40 26 40 30 0 4 17 17 38 30 20 12 51 35 67 50 32 30 64 54 165 124 36 24 78 55 93 67 26 21 30 22 55 7 21 -11 29 -25 34 -59 3 -25 7 -285 7 -579 l1 -534 36 -33 c19 -19 45 -34 57 -35 18 -1 122 -1 240 1 17 0 41 13 65 34 l37 34 0 1001 c0 1129 7 1040 -77 1027 -31 -5 -60 -20 -98 -51 -30 -25 -58 -45 -62 -45 -4 0 -28 -18 -53 -40 -25 -22 -50 -40 -54 -40 -4 0 -25 -17 -47 -37 -22 -21 -53 -46 -70 -55 -59 -36 -159 -109 -167 -123 -4 -8 -26 -24 -48 -36 -22 -11 -42 -26 -45 -34 -3 -8 -29 -28 -57 -45 -29 -17 -72 -46 -97 -65 -25 -19 -64 -49 -88 -67 -24 -18 -61 -49 -84 -68 -22 -19 -55 -44 -73 -55 -57 -35 -140 -98 -249 -188 -21 -17 -53 -41 -71 -52 -49 -30 -125 -86 -164 -121 -20 -17 -50 -38 -66 -47 -17 -8 -39 -24 -49 -36 -53 -58 -56 -23 -57 593 0 391 -4 562 -12 590 -21 67 -47 79 -189 82 -68 1 -138 0 -157 -4z"></path><path id="p14FBT6FhC" d="M31767 3696 c-12 -14 -38 -45 -57 -71 -19 -25 -49 -63 -66 -83 -17 -20 -47 -62 -67 -92 -20 -30 -56 -80 -81 -110 -25 -30 -61 -77 -81 -105 -19 -27 -57 -79 -85 -115 -27 -36 -60 -81 -73 -100 -14 -19 -38 -50 -55 -68 -17 -18 -34 -42 -37 -53 -9 -26 -55 -25 -90 3 -15 12 -40 41 -54 64 -26 41 -39 57 -122 157 -21 27 -46 61 -54 77 -8 16 -21 33 -28 37 -8 4 -30 33 -50 63 -20 30 -56 80 -81 110 -25 30 -61 78 -81 105 -120 169 -120 170 -163 185 -53 18 -72 8 -90 -46 -8 -21 -27 -75 -43 -119 -17 -43 -36 -112 -44 -151 -7 -40 -25 -95 -39 -123 -15 -28 -33 -85 -41 -126 -8 -41 -23 -96 -35 -122 -23 -53 -60 -185 -60 -217 0 -10 -13 -47 -29 -80 -16 -34 -35 -90 -41 -126 -6 -36 -24 -94 -40 -130 -15 -36 -36 -105 -45 -155 -9 -53 -27 -108 -42 -134 -15 -26 -31 -78 -40 -129 -8 -47 -26 -107 -40 -133 -26 -52 -57 -200 -48 -236 11 -45 53 -55 219 -51 172 3 199 13 211 70 4 18 20 58 36 89 15 31 35 96 44 145 9 49 27 111 41 137 13 26 33 89 43 141 11 51 30 115 44 142 13 27 30 81 37 119 7 39 25 98 40 132 16 34 33 85 39 113 13 58 27 90 42 90 15 0 99 -81 114 -109 7 -15 28 -42 47 -62 18 -19 41 -48 50 -65 19 -31 68 -96 116 -154 16 -19 37 -50 46 -68 9 -18 24 -36 32 -39 8 -3 25 -23 37 -44 25 -41 111 -109 137 -109 9 0 24 14 33 30 10 17 36 51 58 76 21 25 39 49 39 54 0 8 18 32 107 139 31 37 85 110 137 186 19 28 42 57 51 65 9 7 25 31 36 52 22 43 28 44 69 23 39 -20 57 -57 80 -167 10 -51 30 -118 43 -148 14 -30 30 -82 37 -115 7 -33 27 -100 46 -150 18 -49 38 -119 44 -154 6 -36 22 -86 36 -112 13 -26 33 -89 44 -140 32 -150 61 -168 263 -170 211 -1 245 22 201 138 -14 37 -32 102 -41 143 -8 41 -28 105 -44 142 -16 36 -35 100 -43 141 -8 41 -26 100 -39 133 -14 32 -35 99 -46 148 -12 49 -30 109 -42 135 -11 25 -29 87 -39 138 -10 50 -30 111 -43 135 -14 24 -30 76 -37 118 -7 41 -25 105 -41 141 -15 36 -35 101 -44 144 -9 43 -28 101 -41 127 -14 27 -31 84 -38 127 -16 91 -34 129 -76 165 -39 32 -55 33 -83 2z"></path><path id="p1f1NWSOy" d="M18991 3692 c-5 -10 -17 -49 -26 -87 -8 -38 -25 -83 -36 -101 -11 -18 -26 -68 -34 -111 -8 -43 -26 -103 -40 -134 -14 -31 -36 -103 -49 -160 -12 -57 -32 -122 -43 -144 -12 -22 -29 -78 -38 -125 -10 -47 -28 -107 -42 -133 -13 -27 -31 -83 -39 -124 -8 -41 -26 -103 -40 -137 -14 -33 -34 -102 -44 -151 -10 -50 -28 -107 -39 -126 -12 -20 -30 -77 -41 -127 -10 -50 -31 -114 -45 -142 -31 -61 -44 -165 -25 -209 19 -46 74 -63 198 -62 70 1 118 7 149 19 45 16 48 20 89 113 24 53 51 132 60 175 9 43 27 100 40 126 13 26 30 85 39 133 8 49 25 104 39 128 14 23 32 82 41 131 9 49 27 111 41 137 13 27 31 81 39 120 20 94 31 114 53 98 43 -33 86 -78 110 -114 13 -22 31 -44 38 -48 8 -4 25 -28 40 -52 14 -25 29 -45 34 -45 4 0 26 -28 49 -62 64 -97 116 -169 128 -176 5 -4 22 -26 37 -49 17 -29 43 -51 77 -68 l51 -26 47 43 c26 24 64 66 84 93 21 28 51 68 67 90 17 22 41 54 55 70 14 17 39 50 56 75 17 25 47 68 67 96 120 165 122 167 176 143 28 -13 38 -37 61 -147 8 -40 26 -94 39 -120 13 -26 31 -87 40 -135 9 -49 28 -114 42 -145 14 -31 36 -101 49 -155 14 -54 33 -118 44 -142 11 -24 25 -70 31 -101 23 -110 72 -186 128 -201 27 -7 307 12 335 22 32 13 32 54 -1 149 -17 50 -36 117 -42 150 -5 32 -21 82 -35 111 -13 29 -32 88 -40 131 -9 43 -29 111 -45 149 -15 39 -35 105 -44 148 -8 42 -27 99 -40 125 -14 27 -30 80 -37 118 -7 38 -25 101 -40 139 -16 39 -36 104 -44 145 -9 41 -27 101 -41 132 -13 31 -33 94 -43 140 -10 46 -29 106 -43 133 -14 28 -31 83 -37 123 -14 90 -32 127 -74 152 -40 25 -63 25 -82 3 -81 -95 -99 -118 -182 -238 -15 -22 -41 -57 -58 -77 -16 -20 -45 -56 -63 -80 -31 -40 -49 -67 -136 -195 -20 -29 -39 -53 -44 -53 -4 0 -16 -15 -27 -32 -37 -64 -108 -138 -132 -138 -26 0 -88 51 -108 91 -8 15 -32 48 -52 73 -70 85 -138 175 -190 251 -15 22 -41 57 -58 77 -101 125 -111 138 -191 256 -49 74 -139 109 -163 64z"></path><path id="pABPQT4d1" d="M10943 2950 c-41 -17 -48 -45 -48 -207 0 -145 1 -154 23 -175 l23 -23 703 -3 c802 -3 741 -9 757 84 11 69 11 182 -1 245 -18 97 45 89 -744 88 -380 0 -701 -4 -713 -9z"></path></g></g></svg>