<svg class="img-fluid" id="outputsvg" xmlns="http://www.w3.org/2000/svg" style="transform: none; transform-origin: 50% 50%; cursor: move; max-height: none;" width="932" height="569" viewBox="0 0 9320 5690"><g id="l1z4qNCfVKkU30ji7tA6no2" fill="currentColor" style="transform: none;"><g><path id="pMxHIUFny" d="M6124 5536 c-9 -38 -1 -61 23 -64 17 -2 24 3 29 22 9 38 1 61 -23 64 -17 2 -24 -3 -29 -22z"></path><path id="pZiNEPkA9" d="M1644 5519 c-40 -11 -90 -67 -103 -116 -15 -52 -14 -186 1 -201 17 -17 45 -15 52 4 3 9 6 53 6 99 0 75 3 87 26 114 33 39 82 49 123 25 45 -27 61 -69 61 -162 0 -74 2 -81 22 -88 38 -12 50 19 46 122 -3 81 -7 97 -32 133 -47 67 -122 93 -202 70z"></path><path id="pNordtn89" d="M2499 5507 c-63 -33 -88 -84 -94 -186 -6 -91 5 -131 34 -131 31 0 41 31 41 125 0 83 1 88 30 117 28 27 35 30 73 24 25 -4 52 -17 67 -32 22 -22 26 -35 30 -119 6 -101 18 -128 48 -109 14 10 17 28 17 111 0 95 -2 102 -30 143 -32 47 -90 79 -141 80 -17 0 -51 -10 -75 -23z"></path><path id="pALDhmoOM" d="M3289 5501 c-28 -29 -29 -32 -29 -135 0 -170 16 -186 190 -186 118 0 150 9 150 41 0 28 -20 33 -138 33 -89 1 -106 4 -116 19 -17 26 4 34 80 30 48 -3 73 0 90 12 28 18 30 28 8 49 -12 12 -37 16 -105 16 l-89 0 0 35 c0 19 1 36 3 36 1 1 60 5 132 8 118 5 130 8 133 25 7 37 -24 46 -156 46 -123 0 -124 0 -153 -29z"></path><path id="pHePxIKeA" d="M4046 5514 c-13 -13 -16 -42 -16 -159 0 -177 -2 -175 137 -175 107 0 136 10 158 55 22 47 19 66 -15 105 -35 42 -36 54 -10 103 22 40 24 55 12 75 -14 21 -41 3 -69 -47 -41 -71 -62 -91 -99 -91 -37 0 -44 12 -44 80 0 38 -4 52 -19 60 -15 7 -23 6 -35 -6z m200 -218 c27 -21 8 -36 -51 -41 -52 -4 -85 7 -85 30 0 25 105 33 136 11z"></path><path id="pv5poGDb9" d="M4484 5520 c-44 -18 -54 -47 -54 -163 0 -60 5 -117 11 -129 18 -34 70 -48 183 -48 121 0 136 4 136 35 0 33 -14 39 -94 36 -90 -2 -146 7 -153 25 -9 24 5 29 78 26 76 -3 109 9 109 38 0 29 -31 40 -114 40 -73 0 -76 1 -82 27 -11 43 14 53 136 53 123 0 154 15 114 54 -12 13 -39 16 -132 15 -64 0 -127 -4 -138 -9z"></path><path id="piWN1uDyt" d="M5129 5517 c-8 -7 -30 -40 -49 -75 -18 -35 -41 -67 -51 -73 -20 -11 -27 -3 -76 91 -23 44 -33 55 -53 55 -41 0 -35 -32 30 -156 64 -124 79 -143 102 -134 18 7 138 237 138 264 0 27 -22 42 -41 28z"></path><path id="p129aMIDhh" d="M5302 5514 c-21 -14 -22 -22 -22 -152 0 -185 0 -185 125 -180 85 3 97 6 137 34 57 41 91 106 83 158 -8 56 -56 120 -105 140 -54 21 -187 22 -218 0z m197 -69 c34 -17 65 -77 55 -108 -17 -58 -74 -87 -149 -78 l-50 6 -3 89 c-2 65 1 92 10 98 21 13 107 9 137 -7z"></path><path id="pYOOD9p6f" d="M6436 5515 c-13 -13 -16 -38 -16 -124 0 -118 -6 -131 -54 -131 -69 0 -103 -32 -69 -65 19 -20 292 -22 311 -3 32 32 1 68 -60 68 -53 0 -58 12 -58 130 0 92 -3 109 -19 124 -17 16 -20 16 -35 1z"></path><path id="ptN6osmX0" d="M6805 5522 c-41 -14 -72 -43 -94 -88 -32 -62 -26 -130 16 -181 72 -90 164 -95 244 -15 54 55 68 104 48 172 -18 60 -84 112 -147 116 -26 2 -56 0 -67 -4z m90 -72 c42 -16 64 -50 65 -97 0 -34 -5 -46 -31 -67 -33 -28 -81 -34 -123 -15 -31 15 -60 72 -50 102 11 37 43 75 67 80 39 7 45 7 72 -3z"></path><path id="p18tuyiNWg" d="M7138 5520 c-16 -10 -18 -29 -18 -165 0 -142 2 -155 19 -165 26 -13 150 -13 192 1 40 14 85 53 105 91 22 43 18 129 -8 168 -43 62 -67 73 -175 77 -60 2 -105 0 -115 -7z m218 -94 c32 -36 39 -70 24 -107 -15 -36 -48 -54 -114 -63 -71 -9 -86 7 -86 96 0 102 7 111 87 106 56 -4 69 -8 89 -32z"></path><path id="pLBPUnRpD" d="M7528 5519 c-26 -14 -22 -33 17 -103 19 -35 50 -92 68 -127 51 -101 61 -96 142 64 71 138 77 172 33 165 -17 -2 -33 -23 -63 -80 -43 -84 -63 -96 -85 -50 -26 50 -83 142 -89 142 -3 0 -14 -5 -23 -11z"></path><path id="prspRhJKY" d="M1076 5504 c-3 -9 -6 -66 -6 -128 0 -101 2 -117 23 -147 28 -42 47 -47 175 -48 110 -1 142 8 142 40 0 30 -40 39 -138 33 -88 -5 -108 -1 -114 26 -2 12 17 17 92 25 87 9 95 12 98 32 4 31 -30 43 -117 43 -39 0 -72 5 -79 12 -7 7 -12 33 -12 58 0 25 -5 51 -12 58 -17 17 -45 15 -52 -4z"></path><path id="pAA3JK1g8" d="M2120 5501 c-5 -11 -10 -64 -10 -119 0 -114 -5 -123 -71 -126 -49 -1 -71 -24 -53 -53 10 -15 30 -18 143 -21 138 -3 171 5 171 38 0 24 -29 40 -72 40 -53 0 -58 12 -58 132 0 96 -2 108 -20 118 -15 8 -21 6 -30 -9z"></path><path id="pnjNR8tRj" d="M2857 5513 c-4 -3 -7 -75 -7 -158 0 -122 3 -155 15 -165 10 -8 49 -11 125 -8 108 3 113 4 136 31 31 37 33 96 3 123 -39 36 -42 50 -15 106 19 39 22 55 14 66 -21 25 -52 9 -78 -40 -35 -65 -59 -88 -90 -88 -37 0 -50 17 -50 66 0 23 -3 49 -6 58 -6 16 -35 22 -47 9z m208 -223 c15 -24 -15 -38 -72 -35 -57 4 -80 15 -69 34 9 14 133 14 141 1z"></path><path id="p8kKDwqvK" d="M5820 5501 c-5 -11 -10 -47 -10 -80 0 -56 -3 -64 -50 -126 -56 -74 -64 -105 -25 -105 13 0 29 6 34 13 6 6 22 27 37 45 14 17 32 32 40 32 14 0 21 -6 76 -68 19 -21 34 -29 48 -25 31 8 24 39 -24 97 -52 64 -67 103 -64 169 2 33 -2 51 -12 57 -23 15 -38 12 -50 -9z"></path><path id="pF3GNZhGn" d="M8001 5511 c-9 -6 -15 -30 -16 -68 -1 -32 -2 -63 -3 -69 -1 -6 -24 -40 -52 -74 -56 -70 -65 -110 -26 -110 17 0 34 12 52 35 48 64 62 65 110 11 31 -36 47 -47 65 -44 40 5 33 34 -25 103 -54 64 -56 68 -56 126 0 57 -12 99 -28 99 -4 0 -13 -4 -21 -9z"></path><path id="p8zeeXmGm" d="M3712 5391 c-8 -4 -12 -19 -10 -32 3 -23 6 -24 104 -27 82 -2 103 0 114 13 11 13 10 19 -5 35 -15 17 -31 20 -104 20 -47 0 -92 -4 -99 -9z"></path><path id="p4pOdAEwb" d="M71 4741 c-7 -13 -11 -135 -11 -354 0 -317 1 -335 19 -351 18 -16 40 -17 223 -14 248 5 286 16 380 110 85 85 102 128 102 258 0 92 -3 112 -26 160 -31 66 -91 125 -173 171 l-60 34 -222 3 c-213 3 -222 3 -232 -17z m413 -126 c15 -3 49 -20 75 -39 95 -70 122 -194 64 -297 -25 -46 -39 -59 -93 -87 -64 -32 -65 -33 -194 -30 l-130 3 -8 40 c-5 23 -5 124 -1 225 l8 185 35 6 c35 6 190 2 244 -6z"></path><path id="pn6dSAxlb" d="M1743 4749 c-10 -10 -13 -95 -13 -355 0 -308 2 -344 17 -359 15 -15 40 -17 223 -13 l206 3 64 32 c36 18 86 52 112 76 87 81 128 233 94 349 -34 118 -92 187 -203 244 l-58 29 -215 3 c-162 2 -218 0 -227 -9z m462 -159 c86 -59 136 -165 115 -240 -25 -88 -90 -159 -165 -179 -60 -16 -260 -14 -274 3 -8 9 -11 78 -9 227 l3 214 40 6 c22 4 87 5 145 2 94 -4 109 -8 145 -33z"></path><path id="pszheRP09" d="M2919 4746 c-95 -34 -165 -94 -217 -186 -36 -63 -37 -68 -37 -165 0 -90 3 -106 29 -160 79 -161 250 -242 420 -199 112 28 231 136 261 236 17 60 20 161 4 221 -24 96 -135 211 -239 250 -54 20 -169 22 -221 3z m234 -166 c152 -109 134 -319 -34 -395 -50 -22 -71 -26 -110 -22 -123 15 -213 111 -212 228 1 67 25 119 80 170 58 55 71 60 153 57 68 -3 80 -6 123 -38z"></path><path id="pLvvt69Ri" d="M4676 4738 c-14 -19 -16 -69 -16 -343 0 -176 4 -326 9 -334 8 -12 14 -12 39 -2 17 7 39 22 49 33 10 11 87 73 172 137 318 239 311 235 326 211 4 -6 6 -92 5 -192 -1 -206 5 -228 63 -228 18 0 43 7 55 16 22 15 22 16 22 343 0 360 -1 363 -54 336 -15 -8 -46 -29 -69 -47 -22 -18 -51 -40 -63 -48 -12 -8 -66 -49 -119 -90 -54 -41 -110 -84 -125 -95 -15 -11 -50 -39 -78 -63 -85 -72 -86 -70 -92 166 -6 224 -5 222 -72 222 -27 0 -41 -6 -52 -22z"></path><path id="p19SAaAVlH" d="M5930 4741 c-6 -12 -10 -122 -10 -288 0 -196 -3 -272 -12 -281 -8 -8 -51 -12 -128 -12 -140 0 -155 -7 -154 -71 2 -70 -4 -69 369 -69 372 0 365 -1 365 73 0 60 -15 67 -154 67 -81 0 -126 4 -134 12 -9 9 -12 84 -12 278 0 307 -1 310 -75 310 -34 0 -47 -5 -55 -19z"></path><path id="pLNldVkVK" d="M6748 4746 c-58 -23 -143 -81 -171 -118 -108 -143 -110 -346 -5 -467 60 -70 123 -108 203 -126 130 -29 235 0 333 93 86 80 116 148 116 262 0 76 -3 92 -34 153 -42 85 -87 132 -170 176 -57 31 -75 35 -150 38 -56 2 -98 -2 -122 -11z m244 -170 c122 -102 131 -238 24 -348 -97 -100 -274 -81 -344 36 -39 64 -48 119 -32 187 11 44 23 63 68 106 62 59 70 62 167 60 66 -2 73 -5 117 -41z"></path><path id="pHbloDO1y" d="M8510 4741 c-11 -21 -15 -647 -4 -675 10 -26 28 -19 98 37 70 55 135 106 309 241 195 150 187 155 187 -98 0 -164 3 -197 16 -210 19 -20 87 -21 103 -2 16 19 18 673 2 689 -14 14 -24 8 -149 -87 -52 -39 -115 -87 -142 -106 -26 -19 -95 -72 -153 -117 -59 -46 -113 -83 -122 -83 -13 0 -15 26 -15 193 0 226 -3 237 -75 237 -34 0 -47 -5 -55 -19z"></path><path id="pO55tSqjL" d="M4169 4685 c-19 -25 -59 -78 -90 -118 -31 -40 -61 -83 -68 -95 -23 -43 -46 -27 -133 95 -127 180 -135 184 -166 96 -21 -62 -76 -242 -94 -308 -6 -22 -28 -96 -50 -163 -33 -102 -38 -128 -29 -148 8 -19 18 -24 50 -24 69 0 74 10 146 245 19 66 39 127 44 135 14 26 40 23 58 -7 55 -86 126 -173 143 -173 11 0 27 12 37 26 10 14 36 49 59 77 22 29 46 62 53 75 6 12 20 22 31 22 11 0 21 -9 25 -22 3 -13 10 -32 15 -43 5 -11 25 -78 45 -150 19 -71 40 -140 45 -152 15 -37 120 -44 133 -10 5 14 -26 138 -66 265 -14 42 -44 145 -67 227 -41 145 -61 195 -79 195 -5 0 -24 -20 -42 -45z"></path><path id="pvj1wZXlh" d="M7562 4718 c-5 -7 -20 -49 -32 -93 -11 -44 -37 -129 -55 -190 -50 -158 -105 -357 -105 -375 0 -26 22 -40 61 -40 60 0 72 20 124 200 53 183 60 200 80 200 14 0 81 -82 123 -152 41 -66 71 -62 122 15 54 80 101 137 115 137 15 0 23 -19 65 -160 73 -239 76 -243 144 -238 60 5 64 21 31 129 -15 52 -43 148 -61 214 -45 159 -101 337 -113 354 -14 21 -30 5 -117 -114 -90 -122 -118 -155 -133 -155 -10 0 -63 66 -135 169 -42 61 -86 111 -97 111 -3 0 -11 -6 -17 -12z"></path><path id="ptjYyR0iB" d="M1038 4469 c-27 -15 -25 -104 1 -119 12 -6 104 -10 228 -10 240 0 253 3 253 70 0 69 -4 70 -248 70 -129 0 -224 -5 -234 -11z"></path><path id="pyVkniB4R" d="M3020 3310 c-13 -8 -15 -192 -15 -1559 0 -1078 3 -1553 11 -1561 15 -15 473 -15 488 0 8 8 12 366 14 1297 2 961 5 1290 14 1300 10 12 83 14 452 11 421 -4 444 -5 515 -26 303 -92 535 -309 645 -605 73 -195 96 -361 76 -531 -20 -166 -80 -349 -160 -486 -63 -108 -229 -279 -335 -346 -31 -19 -45 -33 -45 -46 0 -21 208 6 327 42 58 18 89 33 210 102 179 103 342 307 407 513 86 275 73 630 -35 920 -157 421 -411 712 -766 876 -230 106 -191 102 -1048 106 -470 2 -745 0 -755 -7z"></path><path id="poMlawRPU" d="M4817 3313 c-9 -14 9 -28 77 -58 165 -73 321 -182 453 -316 144 -148 234 -277 316 -459 115 -253 153 -446 145 -735 -6 -214 -32 -326 -115 -493 -128 -260 -312 -417 -607 -517 -150 -51 -230 -58 -589 -57 -238 0 -332 4 -343 13 -12 10 -14 156 -14 1010 0 787 -3 1000 -12 1006 -21 13 -453 16 -477 3 l-21 -11 0 -1248 c0 -1147 1 -1250 16 -1262 24 -20 1305 -15 1439 5 80 13 334 89 389 118 259 134 434 292 584 527 75 118 175 367 206 516 38 180 45 483 16 680 -40 272 -177 582 -347 785 -125 147 -328 305 -469 364 -174 72 -225 89 -318 107 -121 24 -320 37 -329 22z"></path></g></g></svg>